<?xml version="1.0" encoding="UTF-8" standalone="no"?>
<!DOCTYPE svg PUBLIC "-//W3C//DTD SVG 1.1//EN"
 "http://www.w3.org/Graphics/SVG/1.1/DTD/svg11.dtd">
<!-- Generated by graphviz version 2.40.1 (20161225.0304)
 -->
<!-- Title: controllers_diagram Pages: 1 -->
<svg width="1081pt" height="951pt"
 viewBox="0.00 0.00 1080.76 951.00" xmlns="http://www.w3.org/2000/svg" xmlns:xlink="http://www.w3.org/1999/xlink">
<g id="graph0" class="graph" transform="scale(1 1) rotate(0) translate(4 947)">
<title>controllers_diagram</title>
<polygon fill="transparent" stroke="transparent" points="-4,4 -4,-947 1076.7588,-947 1076.7588,4 -4,4"/>
<!-- _diagram_info -->
<g id="node1" class="node">
<title>_diagram_info</title>
<text text-anchor="start" x="134" y="-382.6" font-family="Times,serif" font-size="13.00" fill="#000000">Controllers diagram</text>
<text text-anchor="start" x="134" y="-369.6" font-family="Times,serif" font-size="13.00" fill="#000000">Date: Mar 03 2017 &#45; 13:46</text>
<text text-anchor="start" x="134" y="-356.6" font-family="Times,serif" font-size="13.00" fill="#000000">Migration version: 20130711142625</text>
<text text-anchor="start" x="134" y="-343.6" font-family="Times,serif" font-size="13.00" fill="#000000">Generated by RailRoady 1.5.2</text>
<text text-anchor="start" x="134" y="-330.6" font-family="Times,serif" font-size="13.00" fill="#000000">http://railroady.prestonlee.com</text>
</g>
<!-- AnswersController -->
<g id="node2" class="node">
<title>AnswersController</title>
<path fill="none" stroke="#000000" d="M840,-810.5C840,-810.5 1025.6348,-810.5 1025.6348,-810.5 1031.6348,-810.5 1037.6348,-816.5 1037.6348,-822.5 1037.6348,-822.5 1037.6348,-930.5 1037.6348,-930.5 1037.6348,-936.5 1031.6348,-942.5 1025.6348,-942.5 1025.6348,-942.5 840,-942.5 840,-942.5 834,-942.5 828,-936.5 828,-930.5 828,-930.5 828,-822.5 828,-822.5 828,-816.5 834,-810.5 840,-810.5"/>
<text text-anchor="middle" x="932.8174" y="-927.3" font-family="Times,serif" font-size="14.00" fill="#000000">AnswersController</text>
<polyline fill="none" stroke="#000000" points="828,-920.5 1037.6348,-920.5 "/>
<text text-anchor="start" x="836" y="-905.3" font-family="Times,serif" font-size="14.00" fill="#000000">_one_time_conditions_valid_418?</text>
<text text-anchor="start" x="836" y="-891.3" font-family="Times,serif" font-size="14.00" fill="#000000">create</text>
<text text-anchor="start" x="836" y="-877.3" font-family="Times,serif" font-size="14.00" fill="#000000">destroy</text>
<text text-anchor="start" x="836" y="-863.3" font-family="Times,serif" font-size="14.00" fill="#000000">update</text>
<polyline fill="none" stroke="#000000" points="828,-856.5 1037.6348,-856.5 "/>
<polyline fill="none" stroke="#000000" points="828,-832.5 1037.6348,-832.5 "/>
<text text-anchor="start" x="836" y="-817.3" font-family="Times,serif" font-size="14.00" fill="#000000">_layout</text>
</g>
<!-- ApplicationController -->
<g id="node3" class="node">
<title>ApplicationController</title>
<path fill="none" stroke="#000000" d="M372,-324.5C372,-324.5 550.6348,-324.5 550.6348,-324.5 556.6348,-324.5 562.6348,-330.5 562.6348,-336.5 562.6348,-336.5 562.6348,-542.5 562.6348,-542.5 562.6348,-548.5 556.6348,-554.5 550.6348,-554.5 550.6348,-554.5 372,-554.5 372,-554.5 366,-554.5 360,-548.5 360,-542.5 360,-542.5 360,-336.5 360,-336.5 360,-330.5 366,-324.5 372,-324.5"/>
<text text-anchor="middle" x="461.3174" y="-539.3" font-family="Times,serif" font-size="14.00" fill="#000000">ApplicationController</text>
<polyline fill="none" stroke="#000000" points="360,-532.5 562.6348,-532.5 "/>
<text text-anchor="start" x="368" y="-517.3" font-family="Times,serif" font-size="14.00" fill="#000000">_one_time_conditions_valid_16?</text>
<text text-anchor="start" x="368" y="-503.3" font-family="Times,serif" font-size="14.00" fill="#000000">_one_time_conditions_valid_18?</text>
<polyline fill="none" stroke="#000000" points="360,-496.5 562.6348,-496.5 "/>
<polyline fill="none" stroke="#000000" points="360,-472.5 562.6348,-472.5 "/>
<text text-anchor="start" x="368" y="-457.3" font-family="Times,serif" font-size="14.00" fill="#000000">_layout</text>
<text text-anchor="start" x="368" y="-443.3" font-family="Times,serif" font-size="14.00" fill="#000000">authorize</text>
<text text-anchor="start" x="368" y="-429.3" font-family="Times,serif" font-size="14.00" fill="#000000">current_user</text>
<text text-anchor="start" x="368" y="-415.3" font-family="Times,serif" font-size="14.00" fill="#000000">default_url_options</text>
<text text-anchor="start" x="368" y="-401.3" font-family="Times,serif" font-size="14.00" fill="#000000">get_notification_size</text>
<text text-anchor="start" x="368" y="-387.3" font-family="Times,serif" font-size="14.00" fill="#000000">get_notifications</text>
<text text-anchor="start" x="368" y="-373.3" font-family="Times,serif" font-size="14.00" fill="#000000">get_orientations</text>
<text text-anchor="start" x="368" y="-359.3" font-family="Times,serif" font-size="14.00" fill="#000000">get_programming_languages</text>
<text text-anchor="start" x="368" y="-345.3" font-family="Times,serif" font-size="14.00" fill="#000000">get_semesters</text>
<text text-anchor="start" x="368" y="-331.3" font-family="Times,serif" font-size="14.00" fill="#000000">set_locale</text>
</g>
<!-- CompaniesController -->
<g id="node4" class="node">
<title>CompaniesController</title>
<path fill="none" stroke="#000000" d="M606,-324.5C606,-324.5 791.6348,-324.5 791.6348,-324.5 797.6348,-324.5 803.6348,-330.5 803.6348,-336.5 803.6348,-336.5 803.6348,-514.5 803.6348,-514.5 803.6348,-520.5 797.6348,-526.5 791.6348,-526.5 791.6348,-526.5 606,-526.5 606,-526.5 600,-526.5 594,-520.5 594,-514.5 594,-514.5 594,-336.5 594,-336.5 594,-330.5 600,-324.5 606,-324.5"/>
<text text-anchor="middle" x="698.8174" y="-511.3" font-family="Times,serif" font-size="14.00" fill="#000000">CompaniesController</text>
<polyline fill="none" stroke="#000000" points="594,-504.5 803.6348,-504.5 "/>
<text text-anchor="start" x="602" y="-489.3" font-family="Times,serif" font-size="14.00" fill="#000000">_one_time_conditions_valid_420?</text>
<text text-anchor="start" x="602" y="-475.3" font-family="Times,serif" font-size="14.00" fill="#000000">create</text>
<text text-anchor="start" x="602" y="-461.3" font-family="Times,serif" font-size="14.00" fill="#000000">destroy</text>
<text text-anchor="start" x="602" y="-447.3" font-family="Times,serif" font-size="14.00" fill="#000000">edit</text>
<text text-anchor="start" x="602" y="-433.3" font-family="Times,serif" font-size="14.00" fill="#000000">hello</text>
<text text-anchor="start" x="602" y="-419.3" font-family="Times,serif" font-size="14.00" fill="#000000">index</text>
<text text-anchor="start" x="602" y="-405.3" font-family="Times,serif" font-size="14.00" fill="#000000">new</text>
<text text-anchor="start" x="602" y="-391.3" font-family="Times,serif" font-size="14.00" fill="#000000">show</text>
<text text-anchor="start" x="602" y="-377.3" font-family="Times,serif" font-size="14.00" fill="#000000">update</text>
<polyline fill="none" stroke="#000000" points="594,-370.5 803.6348,-370.5 "/>
<polyline fill="none" stroke="#000000" points="594,-346.5 803.6348,-346.5 "/>
<text text-anchor="start" x="602" y="-331.3" font-family="Times,serif" font-size="14.00" fill="#000000">_layout</text>
</g>
<!-- DownloadController -->
<g id="node5" class="node">
<title>DownloadController</title>
<path fill="none" stroke="#000000" d="M858,-468.5C858,-468.5 1043.6348,-468.5 1043.6348,-468.5 1049.6348,-468.5 1055.6348,-474.5 1055.6348,-480.5 1055.6348,-480.5 1055.6348,-560.5 1055.6348,-560.5 1055.6348,-566.5 1049.6348,-572.5 1043.6348,-572.5 1043.6348,-572.5 858,-572.5 858,-572.5 852,-572.5 846,-566.5 846,-560.5 846,-560.5 846,-480.5 846,-480.5 846,-474.5 852,-468.5 858,-468.5"/>
<text text-anchor="middle" x="950.8174" y="-557.3" font-family="Times,serif" font-size="14.00" fill="#000000">DownloadController</text>
<polyline fill="none" stroke="#000000" points="846,-550.5 1055.6348,-550.5 "/>
<text text-anchor="start" x="854" y="-535.3" font-family="Times,serif" font-size="14.00" fill="#000000">_one_time_conditions_valid_422?</text>
<text text-anchor="start" x="854" y="-521.3" font-family="Times,serif" font-size="14.00" fill="#000000">index</text>
<polyline fill="none" stroke="#000000" points="846,-514.5 1055.6348,-514.5 "/>
<polyline fill="none" stroke="#000000" points="846,-490.5 1055.6348,-490.5 "/>
<text text-anchor="start" x="854" y="-475.3" font-family="Times,serif" font-size="14.00" fill="#000000">_layout</text>
</g>
<!-- ErrorsController -->
<g id="node6" class="node">
<title>ErrorsController</title>
<path fill="none" stroke="#000000" d="M12,-702.5C12,-702.5 96.5313,-702.5 96.5313,-702.5 102.5313,-702.5 108.5313,-708.5 108.5313,-714.5 108.5313,-714.5 108.5313,-780.5 108.5313,-780.5 108.5313,-786.5 102.5313,-792.5 96.5313,-792.5 96.5313,-792.5 12,-792.5 12,-792.5 6,-792.5 0,-786.5 0,-780.5 0,-780.5 0,-714.5 0,-714.5 0,-708.5 6,-702.5 12,-702.5"/>
<text text-anchor="middle" x="54.2656" y="-777.3" font-family="Times,serif" font-size="14.00" fill="#000000">ErrorsController</text>
<polyline fill="none" stroke="#000000" points="0,-770.5 108.5313,-770.5 "/>
<text text-anchor="start" x="8" y="-755.3" font-family="Times,serif" font-size="14.00" fill="#000000">not_found</text>
<polyline fill="none" stroke="#000000" points="0,-748.5 108.5313,-748.5 "/>
<polyline fill="none" stroke="#000000" points="0,-724.5 108.5313,-724.5 "/>
<text text-anchor="start" x="8" y="-709.3" font-family="Times,serif" font-size="14.00" fill="#000000">_layout</text>
</g>
<!-- FaqController -->
<g id="node7" class="node">
<title>FaqController</title>
<path fill="none" stroke="#000000" d="M858,-612.5C858,-612.5 1043.6348,-612.5 1043.6348,-612.5 1049.6348,-612.5 1055.6348,-618.5 1055.6348,-624.5 1055.6348,-624.5 1055.6348,-704.5 1055.6348,-704.5 1055.6348,-710.5 1049.6348,-716.5 1043.6348,-716.5 1043.6348,-716.5 858,-716.5 858,-716.5 852,-716.5 846,-710.5 846,-704.5 846,-704.5 846,-624.5 846,-624.5 846,-618.5 852,-612.5 858,-612.5"/>
<text text-anchor="middle" x="950.8174" y="-701.3" font-family="Times,serif" font-size="14.00" fill="#000000">FaqController</text>
<polyline fill="none" stroke="#000000" points="846,-694.5 1055.6348,-694.5 "/>
<text text-anchor="start" x="854" y="-679.3" font-family="Times,serif" font-size="14.00" fill="#000000">_one_time_conditions_valid_424?</text>
<text text-anchor="start" x="854" y="-665.3" font-family="Times,serif" font-size="14.00" fill="#000000">index</text>
<polyline fill="none" stroke="#000000" points="846,-658.5 1055.6348,-658.5 "/>
<polyline fill="none" stroke="#000000" points="846,-634.5 1055.6348,-634.5 "/>
<text text-anchor="start" x="854" y="-619.3" font-family="Times,serif" font-size="14.00" fill="#000000">_layout</text>
</g>
<!-- FavoriteCompareController -->
<g id="node8" class="node">
<title>FavoriteCompareController</title>
<path fill="none" stroke="#000000" d="M66,-36.5C66,-36.5 213.5176,-36.5 213.5176,-36.5 219.5176,-36.5 225.5176,-42.5 225.5176,-48.5 225.5176,-48.5 225.5176,-114.5 225.5176,-114.5 225.5176,-120.5 219.5176,-126.5 213.5176,-126.5 213.5176,-126.5 66,-126.5 66,-126.5 60,-126.5 54,-120.5 54,-114.5 54,-114.5 54,-48.5 54,-48.5 54,-42.5 60,-36.5 66,-36.5"/>
<text text-anchor="middle" x="139.7588" y="-111.3" font-family="Times,serif" font-size="14.00" fill="#000000">FavoriteCompareController</text>
<polyline fill="none" stroke="#000000" points="54,-104.5 225.5176,-104.5 "/>
<text text-anchor="start" x="62" y="-89.3" font-family="Times,serif" font-size="14.00" fill="#000000">index</text>
<polyline fill="none" stroke="#000000" points="54,-82.5 225.5176,-82.5 "/>
<polyline fill="none" stroke="#000000" points="54,-58.5 225.5176,-58.5 "/>
<text text-anchor="start" x="62" y="-43.3" font-family="Times,serif" font-size="14.00" fill="#000000">_layout</text>
</g>
<!-- FavoriteController -->
<g id="node9" class="node">
<title>FavoriteController</title>
<path fill="none" stroke="#000000" d="M732,-162.5C732,-162.5 917.6348,-162.5 917.6348,-162.5 923.6348,-162.5 929.6348,-168.5 929.6348,-174.5 929.6348,-174.5 929.6348,-282.5 929.6348,-282.5 929.6348,-288.5 923.6348,-294.5 917.6348,-294.5 917.6348,-294.5 732,-294.5 732,-294.5 726,-294.5 720,-288.5 720,-282.5 720,-282.5 720,-174.5 720,-174.5 720,-168.5 726,-162.5 732,-162.5"/>
<text text-anchor="middle" x="824.8174" y="-279.3" font-family="Times,serif" font-size="14.00" fill="#000000">FavoriteController</text>
<polyline fill="none" stroke="#000000" points="720,-272.5 929.6348,-272.5 "/>
<text text-anchor="start" x="728" y="-257.3" font-family="Times,serif" font-size="14.00" fill="#000000">_one_time_conditions_valid_434?</text>
<text text-anchor="start" x="728" y="-243.3" font-family="Times,serif" font-size="14.00" fill="#000000">create</text>
<text text-anchor="start" x="728" y="-229.3" font-family="Times,serif" font-size="14.00" fill="#000000">destroy</text>
<text text-anchor="start" x="728" y="-215.3" font-family="Times,serif" font-size="14.00" fill="#000000">index</text>
<polyline fill="none" stroke="#000000" points="720,-208.5 929.6348,-208.5 "/>
<polyline fill="none" stroke="#000000" points="720,-184.5 929.6348,-184.5 "/>
<text text-anchor="start" x="728" y="-169.3" font-family="Times,serif" font-size="14.00" fill="#000000">_layout</text>
</g>
<!-- FinancingController -->
<g id="node10" class="node">
<title>FinancingController</title>
<path fill="none" stroke="#000000" d="M588,-828.5C588,-828.5 773.6348,-828.5 773.6348,-828.5 779.6348,-828.5 785.6348,-834.5 785.6348,-840.5 785.6348,-840.5 785.6348,-920.5 785.6348,-920.5 785.6348,-926.5 779.6348,-932.5 773.6348,-932.5 773.6348,-932.5 588,-932.5 588,-932.5 582,-932.5 576,-926.5 576,-920.5 576,-920.5 576,-840.5 576,-840.5 576,-834.5 582,-828.5 588,-828.5"/>
<text text-anchor="middle" x="680.8174" y="-917.3" font-family="Times,serif" font-size="14.00" fill="#000000">FinancingController</text>
<polyline fill="none" stroke="#000000" points="576,-910.5 785.6348,-910.5 "/>
<text text-anchor="start" x="584" y="-895.3" font-family="Times,serif" font-size="14.00" fill="#000000">_one_time_conditions_valid_436?</text>
<text text-anchor="start" x="584" y="-881.3" font-family="Times,serif" font-size="14.00" fill="#000000">index</text>
<polyline fill="none" stroke="#000000" points="576,-874.5 785.6348,-874.5 "/>
<polyline fill="none" stroke="#000000" points="576,-850.5 785.6348,-850.5 "/>
<text text-anchor="start" x="584" y="-835.3" font-family="Times,serif" font-size="14.00" fill="#000000">_layout</text>
</g>
<!-- GeneralController -->
<g id="node11" class="node">
<title>GeneralController</title>
<path fill="none" stroke="#000000" d="M336,-828.5C336,-828.5 521.6348,-828.5 521.6348,-828.5 527.6348,-828.5 533.6348,-834.5 533.6348,-840.5 533.6348,-840.5 533.6348,-920.5 533.6348,-920.5 533.6348,-926.5 527.6348,-932.5 521.6348,-932.5 521.6348,-932.5 336,-932.5 336,-932.5 330,-932.5 324,-926.5 324,-920.5 324,-920.5 324,-840.5 324,-840.5 324,-834.5 330,-828.5 336,-828.5"/>
<text text-anchor="middle" x="428.8174" y="-917.3" font-family="Times,serif" font-size="14.00" fill="#000000">GeneralController</text>
<polyline fill="none" stroke="#000000" points="324,-910.5 533.6348,-910.5 "/>
<text text-anchor="start" x="332" y="-895.3" font-family="Times,serif" font-size="14.00" fill="#000000">_one_time_conditions_valid_438?</text>
<text text-anchor="start" x="332" y="-881.3" font-family="Times,serif" font-size="14.00" fill="#000000">index</text>
<polyline fill="none" stroke="#000000" points="324,-874.5 533.6348,-874.5 "/>
<polyline fill="none" stroke="#000000" points="324,-850.5 533.6348,-850.5 "/>
<text text-anchor="start" x="332" y="-835.3" font-family="Times,serif" font-size="14.00" fill="#000000">_layout</text>
</g>
<!-- InternshipOfferController -->
<g id="node12" class="node">
<title>InternshipOfferController</title>
<path fill="none" stroke="#000000" d="M120,-432.5C120,-432.5 305.6348,-432.5 305.6348,-432.5 311.6348,-432.5 317.6348,-438.5 317.6348,-444.5 317.6348,-444.5 317.6348,-538.5 317.6348,-538.5 317.6348,-544.5 311.6348,-550.5 305.6348,-550.5 305.6348,-550.5 120,-550.5 120,-550.5 114,-550.5 108,-544.5 108,-538.5 108,-538.5 108,-444.5 108,-444.5 108,-438.5 114,-432.5 120,-432.5"/>
<text text-anchor="middle" x="212.8174" y="-535.3" font-family="Times,serif" font-size="14.00" fill="#000000">InternshipOfferController</text>
<polyline fill="none" stroke="#000000" points="108,-528.5 317.6348,-528.5 "/>
<text text-anchor="start" x="116" y="-513.3" font-family="Times,serif" font-size="14.00" fill="#000000">_one_time_conditions_valid_440?</text>
<text text-anchor="start" x="116" y="-499.3" font-family="Times,serif" font-size="14.00" fill="#000000">index</text>
<text text-anchor="start" x="116" y="-485.3" font-family="Times,serif" font-size="14.00" fill="#000000">show</text>
<polyline fill="none" stroke="#000000" points="108,-478.5 317.6348,-478.5 "/>
<polyline fill="none" stroke="#000000" points="108,-454.5 317.6348,-454.5 "/>
<text text-anchor="start" x="116" y="-439.3" font-family="Times,serif" font-size="14.00" fill="#000000">_layout</text>
</g>
<!-- InternshipRatingsController -->
<g id="node13" class="node">
<title>InternshipRatingsController</title>
<path fill="none" stroke="#000000" d="M120,-828.5C120,-828.5 269.0898,-828.5 269.0898,-828.5 275.0898,-828.5 281.0898,-834.5 281.0898,-840.5 281.0898,-840.5 281.0898,-908.5 281.0898,-908.5 281.0898,-914.5 275.0898,-920.5 269.0898,-920.5 269.0898,-920.5 120,-920.5 120,-920.5 114,-920.5 108,-914.5 108,-908.5 108,-908.5 108,-840.5 108,-840.5 108,-834.5 114,-828.5 120,-828.5"/>
<text text-anchor="middle" x="194.5449" y="-905.3" font-family="Times,serif" font-size="14.00" fill="#000000">InternshipRatingsController</text>
<polyline fill="none" stroke="#000000" points="108,-898.5 281.0898,-898.5 "/>
<polyline fill="none" stroke="#000000" points="108,-874.5 281.0898,-874.5 "/>
<polyline fill="none" stroke="#000000" points="108,-850.5 281.0898,-850.5 "/>
<text text-anchor="start" x="116" y="-835.3" font-family="Times,serif" font-size="14.00" fill="#000000">_layout</text>
</g>
<!-- InternshipsController -->
<g id="node14" class="node">
<title>InternshipsController</title>
<path fill="none" stroke="#000000" d="M606,-558.5C606,-558.5 791.6348,-558.5 791.6348,-558.5 797.6348,-558.5 803.6348,-564.5 803.6348,-570.5 803.6348,-570.5 803.6348,-762.5 803.6348,-762.5 803.6348,-768.5 797.6348,-774.5 791.6348,-774.5 791.6348,-774.5 606,-774.5 606,-774.5 600,-774.5 594,-768.5 594,-762.5 594,-762.5 594,-570.5 594,-570.5 594,-564.5 600,-558.5 606,-558.5"/>
<text text-anchor="middle" x="698.8174" y="-759.3" font-family="Times,serif" font-size="14.00" fill="#000000">InternshipsController</text>
<polyline fill="none" stroke="#000000" points="594,-752.5 803.6348,-752.5 "/>
<text text-anchor="start" x="602" y="-737.3" font-family="Times,serif" font-size="14.00" fill="#000000">_one_time_conditions_valid_458?</text>
<text text-anchor="start" x="602" y="-723.3" font-family="Times,serif" font-size="14.00" fill="#000000">_one_time_conditions_valid_462?</text>
<text text-anchor="start" x="602" y="-709.3" font-family="Times,serif" font-size="14.00" fill="#000000">_one_time_conditions_valid_466?</text>
<text text-anchor="start" x="602" y="-695.3" font-family="Times,serif" font-size="14.00" fill="#000000">_one_time_conditions_valid_468?</text>
<text text-anchor="start" x="602" y="-681.3" font-family="Times,serif" font-size="14.00" fill="#000000">destroy</text>
<text text-anchor="start" x="602" y="-667.3" font-family="Times,serif" font-size="14.00" fill="#000000">edit</text>
<text text-anchor="start" x="602" y="-653.3" font-family="Times,serif" font-size="14.00" fill="#000000">index</text>
<text text-anchor="start" x="602" y="-639.3" font-family="Times,serif" font-size="14.00" fill="#000000">show</text>
<text text-anchor="start" x="602" y="-625.3" font-family="Times,serif" font-size="14.00" fill="#000000">update</text>
<polyline fill="none" stroke="#000000" points="594,-618.5 803.6348,-618.5 "/>
<polyline fill="none" stroke="#000000" points="594,-594.5 803.6348,-594.5 "/>
<text text-anchor="start" x="602" y="-579.3" font-family="Times,serif" font-size="14.00" fill="#000000">_layout</text>
<text text-anchor="start" x="602" y="-565.3" font-family="Times,serif" font-size="14.00" fill="#000000">authorize_internship</text>
</g>
<!-- NoPathController -->
<g id="node15" class="node">
<title>NoPathController</title>
<path fill="none" stroke="#000000" d="M48,-198.5C48,-198.5 139.5449,-198.5 139.5449,-198.5 145.5449,-198.5 151.5449,-204.5 151.5449,-210.5 151.5449,-210.5 151.5449,-276.5 151.5449,-276.5 151.5449,-282.5 145.5449,-288.5 139.5449,-288.5 139.5449,-288.5 48,-288.5 48,-288.5 42,-288.5 36,-282.5 36,-276.5 36,-276.5 36,-210.5 36,-210.5 36,-204.5 42,-198.5 48,-198.5"/>
<text text-anchor="middle" x="93.7725" y="-273.3" font-family="Times,serif" font-size="14.00" fill="#000000">NoPathController</text>
<polyline fill="none" stroke="#000000" points="36,-266.5 151.5449,-266.5 "/>
<text text-anchor="start" x="44" y="-251.3" font-family="Times,serif" font-size="14.00" fill="#000000">index</text>
<polyline fill="none" stroke="#000000" points="36,-244.5 151.5449,-244.5 "/>
<polyline fill="none" stroke="#000000" points="36,-220.5 151.5449,-220.5 "/>
<text text-anchor="start" x="44" y="-205.3" font-family="Times,serif" font-size="14.00" fill="#000000">_layout</text>
</g>
<!-- NotificationsController -->
<g id="node16" class="node">
<title>NotificationsController</title>
<path fill="none" stroke="#000000" d="M480,-.5C480,-.5 601.876,-.5 601.876,-.5 607.876,-.5 613.876,-6.5 613.876,-12.5 613.876,-12.5 613.876,-92.5 613.876,-92.5 613.876,-98.5 607.876,-104.5 601.876,-104.5 601.876,-104.5 480,-104.5 480,-104.5 474,-104.5 468,-98.5 468,-92.5 468,-92.5 468,-12.5 468,-12.5 468,-6.5 474,-.5 480,-.5"/>
<text text-anchor="middle" x="540.938" y="-89.3" font-family="Times,serif" font-size="14.00" fill="#000000">NotificationsController</text>
<polyline fill="none" stroke="#000000" points="468,-82.5 613.876,-82.5 "/>
<text text-anchor="start" x="476" y="-67.3" font-family="Times,serif" font-size="14.00" fill="#000000">destroy</text>
<text text-anchor="start" x="476" y="-53.3" font-family="Times,serif" font-size="14.00" fill="#000000">show</text>
<polyline fill="none" stroke="#000000" points="468,-46.5 613.876,-46.5 "/>
<polyline fill="none" stroke="#000000" points="468,-22.5 613.876,-22.5 "/>
<text text-anchor="start" x="476" y="-7.3" font-family="Times,serif" font-size="14.00" fill="#000000">_layout</text>
</g>
<!-- OverviewController -->
<g id="node17" class="node">
<title>OverviewController</title>
<path fill="none" stroke="#000000" d="M192,-162.5C192,-162.5 377.6348,-162.5 377.6348,-162.5 383.6348,-162.5 389.6348,-168.5 389.6348,-174.5 389.6348,-174.5 389.6348,-282.5 389.6348,-282.5 389.6348,-288.5 383.6348,-294.5 377.6348,-294.5 377.6348,-294.5 192,-294.5 192,-294.5 186,-294.5 180,-288.5 180,-282.5 180,-282.5 180,-174.5 180,-174.5 180,-168.5 186,-162.5 192,-162.5"/>
<text text-anchor="middle" x="284.8174" y="-279.3" font-family="Times,serif" font-size="14.00" fill="#000000">OverviewController</text>
<polyline fill="none" stroke="#000000" points="180,-272.5 389.6348,-272.5 "/>
<text text-anchor="start" x="188" y="-257.3" font-family="Times,serif" font-size="14.00" fill="#000000">_one_time_conditions_valid_476?</text>
<text text-anchor="start" x="188" y="-243.3" font-family="Times,serif" font-size="14.00" fill="#000000">_one_time_conditions_valid_478?</text>
<text text-anchor="start" x="188" y="-229.3" font-family="Times,serif" font-size="14.00" fill="#000000">_one_time_conditions_valid_480?</text>
<text text-anchor="start" x="188" y="-215.3" font-family="Times,serif" font-size="14.00" fill="#000000">index</text>
<polyline fill="none" stroke="#000000" points="180,-208.5 389.6348,-208.5 "/>
<polyline fill="none" stroke="#000000" points="180,-184.5 389.6348,-184.5 "/>
<text text-anchor="start" x="188" y="-169.3" font-family="Times,serif" font-size="14.00" fill="#000000">_layout</text>
</g>
<!-- PageController -->
<g id="node18" class="node">
<title>PageController</title>
<path fill="none" stroke="#000000" d="M984,-162.5C984,-162.5 1060.7588,-162.5 1060.7588,-162.5 1066.7588,-162.5 1072.7588,-168.5 1072.7588,-174.5 1072.7588,-174.5 1072.7588,-240.5 1072.7588,-240.5 1072.7588,-246.5 1066.7588,-252.5 1060.7588,-252.5 1060.7588,-252.5 984,-252.5 984,-252.5 978,-252.5 972,-246.5 972,-240.5 972,-240.5 972,-174.5 972,-174.5 972,-168.5 978,-162.5 984,-162.5"/>
<text text-anchor="middle" x="1022.3794" y="-237.3" font-family="Times,serif" font-size="14.00" fill="#000000">PageController</text>
<polyline fill="none" stroke="#000000" points="972,-230.5 1072.7588,-230.5 "/>
<text text-anchor="start" x="980" y="-215.3" font-family="Times,serif" font-size="14.00" fill="#000000">index</text>
<polyline fill="none" stroke="#000000" points="972,-208.5 1072.7588,-208.5 "/>
<polyline fill="none" stroke="#000000" points="972,-184.5 1072.7588,-184.5 "/>
<text text-anchor="start" x="980" y="-169.3" font-family="Times,serif" font-size="14.00" fill="#000000">_layout</text>
</g>
<!-- PasswordResetsController -->
<g id="node19" class="node">
<title>PasswordResetsController</title>
<path fill="none" stroke="#000000" d="M156,-666.5C156,-666.5 295.7656,-666.5 295.7656,-666.5 301.7656,-666.5 307.7656,-672.5 307.7656,-678.5 307.7656,-678.5 307.7656,-786.5 307.7656,-786.5 307.7656,-792.5 301.7656,-798.5 295.7656,-798.5 295.7656,-798.5 156,-798.5 156,-798.5 150,-798.5 144,-792.5 144,-786.5 144,-786.5 144,-678.5 144,-678.5 144,-672.5 150,-666.5 156,-666.5"/>
<text text-anchor="middle" x="225.8828" y="-783.3" font-family="Times,serif" font-size="14.00" fill="#000000">PasswordResetsController</text>
<polyline fill="none" stroke="#000000" points="144,-776.5 307.7656,-776.5 "/>
<text text-anchor="start" x="152" y="-761.3" font-family="Times,serif" font-size="14.00" fill="#000000">create</text>
<text text-anchor="start" x="152" y="-747.3" font-family="Times,serif" font-size="14.00" fill="#000000">edit</text>
<text text-anchor="start" x="152" y="-733.3" font-family="Times,serif" font-size="14.00" fill="#000000">new</text>
<text text-anchor="start" x="152" y="-719.3" font-family="Times,serif" font-size="14.00" fill="#000000">update</text>
<polyline fill="none" stroke="#000000" points="144,-712.5 307.7656,-712.5 "/>
<polyline fill="none" stroke="#000000" points="144,-688.5 307.7656,-688.5 "/>
<text text-anchor="start" x="152" y="-673.3" font-family="Times,serif" font-size="14.00" fill="#000000">_layout</text>
</g>
<!-- QuicksearchesController -->
<g id="node20" class="node">
<title>QuicksearchesController</title>
<path fill="none" stroke="#000000" d="M264,-36.5C264,-36.5 395.1729,-36.5 395.1729,-36.5 401.1729,-36.5 407.1729,-42.5 407.1729,-48.5 407.1729,-48.5 407.1729,-114.5 407.1729,-114.5 407.1729,-120.5 401.1729,-126.5 395.1729,-126.5 395.1729,-126.5 264,-126.5 264,-126.5 258,-126.5 252,-120.5 252,-114.5 252,-114.5 252,-48.5 252,-48.5 252,-42.5 258,-36.5 264,-36.5"/>
<text text-anchor="middle" x="329.5864" y="-111.3" font-family="Times,serif" font-size="14.00" fill="#000000">QuicksearchesController</text>
<polyline fill="none" stroke="#000000" points="252,-104.5 407.1729,-104.5 "/>
<text text-anchor="start" x="260" y="-89.3" font-family="Times,serif" font-size="14.00" fill="#000000">index</text>
<polyline fill="none" stroke="#000000" points="252,-82.5 407.1729,-82.5 "/>
<polyline fill="none" stroke="#000000" points="252,-58.5 407.1729,-58.5 "/>
<text text-anchor="start" x="260" y="-43.3" font-family="Times,serif" font-size="14.00" fill="#000000">_layout</text>
</g>
<!-- SearchController -->
<g id="node21" class="node">
<title>SearchController</title>
<path fill="none" stroke="#000000" d="M858,-324.5C858,-324.5 1043.6348,-324.5 1043.6348,-324.5 1049.6348,-324.5 1055.6348,-330.5 1055.6348,-336.5 1055.6348,-336.5 1055.6348,-416.5 1055.6348,-416.5 1055.6348,-422.5 1049.6348,-428.5 1043.6348,-428.5 1043.6348,-428.5 858,-428.5 858,-428.5 852,-428.5 846,-422.5 846,-416.5 846,-416.5 846,-336.5 846,-336.5 846,-330.5 852,-324.5 858,-324.5"/>
<text text-anchor="middle" x="950.8174" y="-413.3" font-family="Times,serif" font-size="14.00" fill="#000000">SearchController</text>
<polyline fill="none" stroke="#000000" points="846,-406.5 1055.6348,-406.5 "/>
<text text-anchor="start" x="854" y="-391.3" font-family="Times,serif" font-size="14.00" fill="#000000">_one_time_conditions_valid_482?</text>
<text text-anchor="start" x="854" y="-377.3" font-family="Times,serif" font-size="14.00" fill="#000000">index</text>
<polyline fill="none" stroke="#000000" points="846,-370.5 1055.6348,-370.5 "/>
<polyline fill="none" stroke="#000000" points="846,-346.5 1055.6348,-346.5 "/>
<text text-anchor="start" x="854" y="-331.3" font-family="Times,serif" font-size="14.00" fill="#000000">_layout</text>
</g>
<!-- SessionsController -->
<g id="node22" class="node">
<title>SessionsController</title>
<path fill="none" stroke="#000000" d="M930,-.5C930,-.5 1027.7793,-.5 1027.7793,-.5 1033.7793,-.5 1039.7793,-6.5 1039.7793,-12.5 1039.7793,-12.5 1039.7793,-106.5 1039.7793,-106.5 1039.7793,-112.5 1033.7793,-118.5 1027.7793,-118.5 1027.7793,-118.5 930,-118.5 930,-118.5 924,-118.5 918,-112.5 918,-106.5 918,-106.5 918,-12.5 918,-12.5 918,-6.5 924,-.5 930,-.5"/>
<text text-anchor="middle" x="978.8896" y="-103.3" font-family="Times,serif" font-size="14.00" fill="#000000">SessionsController</text>
<polyline fill="none" stroke="#000000" points="918,-96.5 1039.7793,-96.5 "/>
<text text-anchor="start" x="926" y="-81.3" font-family="Times,serif" font-size="14.00" fill="#000000">create</text>
<text text-anchor="start" x="926" y="-67.3" font-family="Times,serif" font-size="14.00" fill="#000000">destroy</text>
<text text-anchor="start" x="926" y="-53.3" font-family="Times,serif" font-size="14.00" fill="#000000">new</text>
<polyline fill="none" stroke="#000000" points="918,-46.5 1039.7793,-46.5 "/>
<polyline fill="none" stroke="#000000" points="918,-22.5 1039.7793,-22.5 "/>
<text text-anchor="start" x="926" y="-7.3" font-family="Times,serif" font-size="14.00" fill="#000000">_layout</text>
</g>
<!-- UserCommentsController -->
<g id="node23" class="node">
<title>UserCommentsController</title>
<path fill="none" stroke="#000000" d="M480,-144.5C480,-144.5 665.6348,-144.5 665.6348,-144.5 671.6348,-144.5 677.6348,-150.5 677.6348,-156.5 677.6348,-156.5 677.6348,-278.5 677.6348,-278.5 677.6348,-284.5 671.6348,-290.5 665.6348,-290.5 665.6348,-290.5 480,-290.5 480,-290.5 474,-290.5 468,-284.5 468,-278.5 468,-278.5 468,-156.5 468,-156.5 468,-150.5 474,-144.5 480,-144.5"/>
<text text-anchor="middle" x="572.8174" y="-275.3" font-family="Times,serif" font-size="14.00" fill="#000000">UserCommentsController</text>
<polyline fill="none" stroke="#000000" points="468,-268.5 677.6348,-268.5 "/>
<text text-anchor="start" x="476" y="-253.3" font-family="Times,serif" font-size="14.00" fill="#000000">_one_time_conditions_valid_484?</text>
<text text-anchor="start" x="476" y="-239.3" font-family="Times,serif" font-size="14.00" fill="#000000">create</text>
<text text-anchor="start" x="476" y="-225.3" font-family="Times,serif" font-size="14.00" fill="#000000">destroy</text>
<text text-anchor="start" x="476" y="-211.3" font-family="Times,serif" font-size="14.00" fill="#000000">new</text>
<text text-anchor="start" x="476" y="-197.3" font-family="Times,serif" font-size="14.00" fill="#000000">update</text>
<polyline fill="none" stroke="#000000" points="468,-190.5 677.6348,-190.5 "/>
<polyline fill="none" stroke="#000000" points="468,-166.5 677.6348,-166.5 "/>
<text text-anchor="start" x="476" y="-151.3" font-family="Times,serif" font-size="14.00" fill="#000000">_layout</text>
</g>
<!-- UserVerificationsController -->
<g id="node24" class="node">
<title>UserVerificationsController</title>
<path fill="none" stroke="#000000" d="M732,-18.5C732,-18.5 878.7451,-18.5 878.7451,-18.5 884.7451,-18.5 890.7451,-24.5 890.7451,-30.5 890.7451,-30.5 890.7451,-110.5 890.7451,-110.5 890.7451,-116.5 884.7451,-122.5 878.7451,-122.5 878.7451,-122.5 732,-122.5 732,-122.5 726,-122.5 720,-116.5 720,-110.5 720,-110.5 720,-30.5 720,-30.5 720,-24.5 726,-18.5 732,-18.5"/>
<text text-anchor="middle" x="805.3726" y="-107.3" font-family="Times,serif" font-size="14.00" fill="#000000">UserVerificationsController</text>
<polyline fill="none" stroke="#000000" points="720,-100.5 890.7451,-100.5 "/>
<text text-anchor="start" x="728" y="-85.3" font-family="Times,serif" font-size="14.00" fill="#000000">create</text>
<text text-anchor="start" x="728" y="-71.3" font-family="Times,serif" font-size="14.00" fill="#000000">new</text>
<polyline fill="none" stroke="#000000" points="720,-64.5 890.7451,-64.5 "/>
<polyline fill="none" stroke="#000000" points="720,-40.5 890.7451,-40.5 "/>
<text text-anchor="start" x="728" y="-25.3" font-family="Times,serif" font-size="14.00" fill="#000000">_layout</text>
</g>
<!-- UsersController -->
<g id="node25" class="node">
<title>UsersController</title>
<path fill="none" stroke="#000000" d="M354,-594.5C354,-594.5 539.6348,-594.5 539.6348,-594.5 545.6348,-594.5 551.6348,-600.5 551.6348,-606.5 551.6348,-606.5 551.6348,-784.5 551.6348,-784.5 551.6348,-790.5 545.6348,-796.5 539.6348,-796.5 539.6348,-796.5 354,-796.5 354,-796.5 348,-796.5 342,-790.5 342,-784.5 342,-784.5 342,-606.5 342,-606.5 342,-600.5 348,-594.5 354,-594.5"/>
<text text-anchor="middle" x="446.8174" y="-781.3" font-family="Times,serif" font-size="14.00" fill="#000000">UsersController</text>
<polyline fill="none" stroke="#000000" points="342,-774.5 551.6348,-774.5 "/>
<text text-anchor="start" x="350" y="-759.3" font-family="Times,serif" font-size="14.00" fill="#000000">_one_time_conditions_valid_486?</text>
<text text-anchor="start" x="350" y="-745.3" font-family="Times,serif" font-size="14.00" fill="#000000">_one_time_conditions_valid_490?</text>
<text text-anchor="start" x="350" y="-731.3" font-family="Times,serif" font-size="14.00" fill="#000000">create</text>
<text text-anchor="start" x="350" y="-717.3" font-family="Times,serif" font-size="14.00" fill="#000000">edit</text>
<text text-anchor="start" x="350" y="-703.3" font-family="Times,serif" font-size="14.00" fill="#000000">new</text>
<text text-anchor="start" x="350" y="-689.3" font-family="Times,serif" font-size="14.00" fill="#000000">show</text>
<text text-anchor="start" x="350" y="-675.3" font-family="Times,serif" font-size="14.00" fill="#000000">update</text>
<polyline fill="none" stroke="#000000" points="342,-668.5 551.6348,-668.5 "/>
<polyline fill="none" stroke="#000000" points="342,-644.5 551.6348,-644.5 "/>
<text text-anchor="start" x="350" y="-629.3" font-family="Times,serif" font-size="14.00" fill="#000000">_layout</text>
<text text-anchor="start" x="350" y="-615.3" font-family="Times,serif" font-size="14.00" fill="#000000">check_existing_user</text>
<text text-anchor="start" x="350" y="-601.3" font-family="Times,serif" font-size="14.00" fill="#000000">check_permission</text>
</g>
</g>
</svg>
