<?xml version="1.0" encoding="UTF-8" standalone="no"?>
<!DOCTYPE svg PUBLIC "-//W3C//DTD SVG 1.1//EN"
 "http://www.w3.org/Graphics/SVG/1.1/DTD/svg11.dtd">
<!-- Generated by graphviz version 2.40.1 (20161225.0304)
 -->
<!-- Title: models_diagram Pages: 1 -->
<svg width="2629pt" height="297pt"
 viewBox="0.00 0.00 2628.51 297.00" xmlns="http://www.w3.org/2000/svg" xmlns:xlink="http://www.w3.org/1999/xlink">
<g id="graph0" class="graph" transform="scale(1 1) rotate(0) translate(4 293)">
<title>models_diagram</title>
<polygon fill="transparent" stroke="transparent" points="-4,4 -4,-293 2624.5142,-293 2624.5142,4 -4,4"/>
<!-- _diagram_info -->
<g id="node1" class="node">
<title>_diagram_info</title>
<text text-anchor="start" x="8" y="-274.6" font-family="Times,serif" font-size="13.00" fill="#000000">Models diagram</text>
<text text-anchor="start" x="8" y="-261.6" font-family="Times,serif" font-size="13.00" fill="#000000">Date: Mar 03 2017 &#45; 13:46</text>
<text text-anchor="start" x="8" y="-248.6" font-family="Times,serif" font-size="13.00" fill="#000000">Migration version: 20130711142625</text>
<text text-anchor="start" x="8" y="-235.6" font-family="Times,serif" font-size="13.00" fill="#000000">Generated by RailRoady 1.5.2</text>
<text text-anchor="start" x="8" y="-222.6" font-family="Times,serif" font-size="13.00" fill="#000000">http://railroady.prestonlee.com</text>
</g>
<!-- AdminUser -->
<g id="node2" class="node">
<title>AdminUser</title>
<ellipse fill="none" stroke="#000000" cx="276.2117" cy="-252.5" rx="51.2415" ry="18"/>
<text text-anchor="middle" x="276.2117" y="-248.3" font-family="Times,serif" font-size="14.00" fill="#000000">AdminUser</text>
</g>
<!-- Answer -->
<g id="node3" class="node">
<title>Answer</title>
<ellipse fill="none" stroke="#000000" cx="1470.2117" cy="-18" rx="37.7266" ry="18"/>
<text text-anchor="middle" x="1470.2117" y="-13.8" font-family="Times,serif" font-size="14.00" fill="#000000">Answer</text>
</g>
<!-- Attachment -->
<g id="node4" class="node">
<title>Attachment</title>
<ellipse fill="none" stroke="#000000" cx="1242.2117" cy="-90" rx="51.2242" ry="18"/>
<text text-anchor="middle" x="1242.2117" y="-85.8" font-family="Times,serif" font-size="14.00" fill="#000000">Attachment</text>
</g>
<!-- CertificateState -->
<g id="node5" class="node">
<title>CertificateState</title>
<ellipse fill="none" stroke="#000000" cx="1479.2117" cy="-252.5" rx="64.7459" ry="18"/>
<text text-anchor="middle" x="1479.2117" y="-248.3" font-family="Times,serif" font-size="14.00" fill="#000000">CertificateState</text>
</g>
<!-- Internship -->
<g id="node10" class="node">
<title>Internship</title>
<ellipse fill="none" stroke="#000000" cx="1242.2117" cy="-162" rx="45.9286" ry="18"/>
<text text-anchor="middle" x="1242.2117" y="-157.8" font-family="Times,serif" font-size="14.00" fill="#000000">Internship</text>
</g>
<!-- CertificateState&#45;&gt;Internship -->
<g id="edge1" class="edge">
<title>CertificateState&#45;&gt;Internship</title>
<path fill="none" stroke="#1307c8" d="M1442.2045,-232.69C1430.8189,-226.952 1418.1406,-220.9155 1406.2117,-216 1367.6573,-200.1129 1322.5777,-185.5467 1289.4488,-175.557"/>
<ellipse fill="none" stroke="#1307c8" cx="1445.916" cy="-234.5844" rx="4" ry="4"/>
<polygon fill="#1307c8" stroke="#1307c8" points="1289.1534,-175.4688 1280.8592,-168.2954 1284.3624,-174.0381 1279.5715,-172.6073 1279.5715,-172.6073 1279.5715,-172.6073 1284.3624,-174.0381 1278.2838,-176.9191 1289.1534,-175.4688 1289.1534,-175.4688"/>
</g>
<!-- Company -->
<g id="node6" class="node">
<title>Company</title>
<ellipse fill="none" stroke="#000000" cx="1606.2117" cy="-252.5" rx="44.4923" ry="18"/>
<text text-anchor="middle" x="1606.2117" y="-248.3" font-family="Times,serif" font-size="14.00" fill="#000000">Company</text>
</g>
<!-- Company&#45;&gt;Internship -->
<g id="edge2" class="edge">
<title>Company&#45;&gt;Internship</title>
<path fill="none" stroke="#bc4051" d="M1580.1707,-231.2738C1571.965,-225.5173 1562.5859,-219.826 1553.2117,-216 1468.6224,-181.4758 1362.3084,-169.0165 1298.442,-164.5253"/>
<ellipse fill="none" stroke="#bc4051" cx="1583.5309" cy="-233.7266" rx="4" ry="4"/>
<polygon fill="#bc4051" stroke="#bc4051" points="1298.1596,-164.5067 1288.4783,-159.3566 1293.1705,-164.1767 1288.1814,-163.8468 1288.1814,-163.8468 1288.1814,-163.8468 1293.1705,-164.1767 1287.8844,-168.337 1298.1596,-164.5067 1298.1596,-164.5067"/>
</g>
<!-- ContractState -->
<g id="node7" class="node">
<title>ContractState</title>
<ellipse fill="none" stroke="#000000" cx="1727.2117" cy="-252.5" rx="58.4823" ry="18"/>
<text text-anchor="middle" x="1727.2117" y="-248.3" font-family="Times,serif" font-size="14.00" fill="#000000">ContractState</text>
</g>
<!-- ContractState&#45;&gt;Internship -->
<g id="edge3" class="edge">
<title>ContractState&#45;&gt;Internship</title>
<path fill="none" stroke="#9cbc45" d="M1695.0711,-232.1528C1684.0766,-226.0455 1671.4556,-219.9315 1659.2117,-216 1593.0723,-194.7625 1394.807,-175.2574 1297.4192,-166.6463"/>
<ellipse fill="none" stroke="#9cbc45" cx="1698.5693" cy="-234.1551" rx="4" ry="4"/>
<polygon fill="#9cbc45" stroke="#9cbc45" points="1297.1484,-166.6227 1287.5799,-161.2661 1292.1675,-166.1858 1287.1867,-165.7489 1287.1867,-165.7489 1287.1867,-165.7489 1292.1675,-166.1858 1286.7935,-170.2316 1297.1484,-166.6227 1297.1484,-166.6227"/>
</g>
<!-- DatabaseParser -->
<g id="node8" class="node">
<title>DatabaseParser</title>
<polygon fill="none" stroke="#000000" points="1997.5021,-270.5 1894.9212,-270.5 1894.9212,-234.5 1997.5021,-234.5 1997.5021,-270.5"/>
<text text-anchor="middle" x="1946.2117" y="-248.3" font-family="Times,serif" font-size="14.00" fill="#000000">DatabaseParser</text>
</g>
<!-- Favorite -->
<g id="node9" class="node">
<title>Favorite</title>
<ellipse fill="none" stroke="#000000" cx="1351.2117" cy="-90" rx="39.6558" ry="18"/>
<text text-anchor="middle" x="1351.2117" y="-85.8" font-family="Times,serif" font-size="14.00" fill="#000000">Favorite</text>
</g>
<!-- Internship&#45;&gt;Attachment -->
<g id="edge7" class="edge">
<title>Internship&#45;&gt;Attachment</title>
<path fill="none" stroke="#71d929" d="M1242.2117,-135.8144C1242.2117,-130.2775 1242.2117,-124.4053 1242.2117,-118.7785"/>
<ellipse fill="none" stroke="#71d929" cx="1242.2117" cy="-139.8314" rx="4" ry="4"/>
<polygon fill="#71d929" stroke="#71d929" points="1242.2118,-118.4133 1246.7117,-108.4132 1242.2117,-113.4133 1242.2117,-108.4133 1242.2117,-108.4133 1242.2117,-108.4133 1242.2117,-113.4133 1237.7117,-108.4133 1242.2118,-118.4133 1242.2118,-118.4133"/>
</g>
<!-- Internship&#45;&gt;Favorite -->
<g id="edge6" class="edge">
<title>Internship&#45;&gt;Favorite</title>
<path fill="none" stroke="#9a073c" d="M1272.6954,-141.8639C1287.5602,-132.045 1305.4046,-120.2579 1320.3229,-110.4036"/>
<ellipse fill="none" stroke="#9a073c" cx="1269.2006" cy="-144.1724" rx="4" ry="4"/>
<polygon fill="#9a073c" stroke="#9a073c" points="1320.3799,-110.366 1331.2041,-108.6091 1324.5519,-107.6102 1328.7239,-104.8543 1328.7239,-104.8543 1328.7239,-104.8543 1324.5519,-107.6102 1326.2436,-101.0995 1320.3799,-110.366 1320.3799,-110.366"/>
</g>
<!-- ProgrammingLanguage -->
<g id="node19" class="node">
<title>ProgrammingLanguage</title>
<ellipse fill="none" stroke="#000000" cx="1079.2117" cy="-90" rx="93.7119" ry="18"/>
<text text-anchor="middle" x="1079.2117" y="-85.8" font-family="Times,serif" font-size="14.00" fill="#000000">ProgrammingLanguage</text>
</g>
<!-- Internship&#45;&gt;ProgrammingLanguage -->
<g id="edge4" class="edge">
<title>Internship&#45;&gt;ProgrammingLanguage</title>
<path fill="none" stroke="#486cd2" d="M1202.3041,-144.3721C1179.2255,-134.1779 1150.068,-121.2985 1125.9245,-110.6339"/>
<polygon fill="#486cd2" stroke="#486cd2" points="1202.4053,-144.4167 1209.7343,-152.5737 1206.9789,-146.437 1211.5526,-148.4574 1211.5526,-148.4574 1211.5526,-148.4574 1206.9789,-146.437 1213.3709,-144.341 1202.4053,-144.4167 1202.4053,-144.4167"/>
<polygon fill="#486cd2" stroke="#486cd2" points="1125.7481,-110.556 1118.419,-102.3991 1121.1745,-108.5357 1116.6008,-106.5154 1116.6008,-106.5154 1116.6008,-106.5154 1121.1745,-108.5357 1114.7825,-110.6317 1125.7481,-110.556 1125.7481,-110.556"/>
</g>
<!-- UserComment -->
<g id="node27" class="node">
<title>UserComment</title>
<ellipse fill="none" stroke="#000000" cx="1470.2117" cy="-90" rx="61.8736" ry="18"/>
<text text-anchor="middle" x="1470.2117" y="-85.8" font-family="Times,serif" font-size="14.00" fill="#000000">UserComment</text>
</g>
<!-- Internship&#45;&gt;UserComment -->
<g id="edge5" class="edge">
<title>Internship&#45;&gt;UserComment</title>
<path fill="none" stroke="#d98072" d="M1285.7376,-148.255C1323.5282,-136.3211 1378.3209,-119.0181 1418.3707,-106.3708"/>
<ellipse fill="none" stroke="#d98072" cx="1281.9018" cy="-149.4662" rx="4" ry="4"/>
<polygon fill="#d98072" stroke="#d98072" points="1418.423,-106.3544 1429.3139,-107.6341 1423.1909,-104.8487 1427.9588,-103.343 1427.9588,-103.343 1427.9588,-103.343 1423.1909,-104.8487 1426.6037,-99.0519 1418.423,-106.3544 1418.423,-106.3544"/>
</g>
<!-- InternshipNotificationHandler -->
<g id="node11" class="node">
<title>InternshipNotificationHandler</title>
<polygon fill="none" stroke="#000000" points="2200.4501,-270.5 2015.9732,-270.5 2015.9732,-234.5 2200.4501,-234.5 2200.4501,-270.5"/>
<text text-anchor="middle" x="2108.2117" y="-248.3" font-family="Times,serif" font-size="14.00" fill="#000000">InternshipNotificationHandler</text>
</g>
<!-- InternshipOffer -->
<g id="node12" class="node">
<title>InternshipOffer</title>
<ellipse fill="none" stroke="#000000" cx="2283.2117" cy="-252.5" rx="64.9106" ry="18"/>
<text text-anchor="middle" x="2283.2117" y="-248.3" font-family="Times,serif" font-size="14.00" fill="#000000">InternshipOffer</text>
</g>
<!-- InternshipRating -->
<g id="node13" class="node">
<title>InternshipRating</title>
<ellipse fill="none" stroke="#000000" cx="415.2117" cy="-252.5" rx="69.5909" ry="18"/>
<text text-anchor="middle" x="415.2117" y="-248.3" font-family="Times,serif" font-size="14.00" fill="#000000">InternshipRating</text>
</g>
<!-- InternshipRating&#45;&gt;Internship -->
<g id="edge8" class="edge">
<title>InternshipRating&#45;&gt;Internship</title>
<path fill="none" stroke="#0d3845" d="M451.2176,-232.295C464.0862,-225.9893 478.9402,-219.7176 493.2117,-216 624.1172,-181.9006 1034.968,-167.6008 1185.8844,-163.4076"/>
<ellipse fill="none" stroke="#0d3845" cx="447.4607" cy="-234.1906" rx="4" ry="4"/>
<polygon fill="#0d3845" stroke="#0d3845" points="1186.2975,-163.3964 1196.4168,-167.6214 1191.2957,-163.2597 1196.2938,-163.123 1196.2938,-163.123 1196.2938,-163.123 1191.2957,-163.2597 1196.1708,-158.6247 1186.2975,-163.3964 1186.2975,-163.3964"/>
</g>
<!-- InternshipState -->
<g id="node14" class="node">
<title>InternshipState</title>
<ellipse fill="none" stroke="#000000" cx="566.2117" cy="-252.5" rx="63.7942" ry="18"/>
<text text-anchor="middle" x="566.2117" y="-248.3" font-family="Times,serif" font-size="14.00" fill="#000000">InternshipState</text>
</g>
<!-- InternshipState&#45;&gt;Internship -->
<g id="edge9" class="edge">
<title>InternshipState&#45;&gt;Internship</title>
<path fill="none" stroke="#6d824a" d="M600.1461,-232.2293C612.1035,-225.9921 625.8912,-219.7796 639.2117,-216 741.229,-187.0528 1057.0636,-170.1893 1186.2605,-164.345"/>
<ellipse fill="none" stroke="#6d824a" cx="596.4809" cy="-234.2001" rx="4" ry="4"/>
<polygon fill="#6d824a" stroke="#6d824a" points="1186.3483,-164.3412 1196.5394,-168.3899 1191.3433,-164.1178 1196.3383,-163.8944 1196.3383,-163.8944 1196.3383,-163.8944 1191.3433,-164.1178 1196.1373,-159.3989 1186.3483,-164.3412 1186.3483,-164.3412"/>
</g>
<!-- LdapAuthentication -->
<g id="node15" class="node">
<title>LdapAuthentication</title>
<polygon fill="none" stroke="#000000" points="2494.1775,-270.5 2366.2458,-270.5 2366.2458,-234.5 2494.1775,-234.5 2494.1775,-270.5"/>
<text text-anchor="middle" x="2430.2117" y="-248.3" font-family="Times,serif" font-size="14.00" fill="#000000">LdapAuthentication</text>
</g>
<!-- Notification -->
<g id="node16" class="node">
<title>Notification</title>
<ellipse fill="none" stroke="#000000" cx="1602.2117" cy="-90" rx="52.2106" ry="18"/>
<text text-anchor="middle" x="1602.2117" y="-85.8" font-family="Times,serif" font-size="14.00" fill="#000000">Notification</text>
</g>
<!-- Orientation -->
<g id="node17" class="node">
<title>Orientation</title>
<ellipse fill="none" stroke="#000000" cx="698.2117" cy="-252.5" rx="50.2637" ry="18"/>
<text text-anchor="middle" x="698.2117" y="-248.3" font-family="Times,serif" font-size="14.00" fill="#000000">Orientation</text>
</g>
<!-- Orientation&#45;&gt;Internship -->
<g id="edge10" class="edge">
<title>Orientation&#45;&gt;Internship</title>
<path fill="none" stroke="#b21f7a" d="M726.3228,-231.5946C735.7049,-225.6017 746.506,-219.6963 757.2117,-216 835.3737,-189.0134 1076.3278,-171.7851 1186.3667,-165.1241"/>
<ellipse fill="none" stroke="#b21f7a" cx="722.7819" cy="-233.9463" rx="4" ry="4"/>
<polygon fill="#b21f7a" stroke="#b21f7a" points="1186.6149,-165.1094 1196.8657,-169.0045 1191.606,-164.8109 1196.5971,-164.5125 1196.5971,-164.5125 1196.5971,-164.5125 1191.606,-164.8109 1196.3285,-160.0205 1186.6149,-165.1094 1186.6149,-165.1094"/>
</g>
<!-- PaymentState -->
<g id="node18" class="node">
<title>PaymentState</title>
<ellipse fill="none" stroke="#000000" cx="825.2117" cy="-252.5" rx="58.9755" ry="18"/>
<text text-anchor="middle" x="825.2117" y="-248.3" font-family="Times,serif" font-size="14.00" fill="#000000">PaymentState</text>
</g>
<!-- PaymentState&#45;&gt;Internship -->
<g id="edge11" class="edge">
<title>PaymentState&#45;&gt;Internship</title>
<path fill="none" stroke="#be38e5" d="M858.0054,-232.0009C868.8622,-226.0137 881.2367,-220.0092 893.2117,-216 993.0292,-182.5813 1115.9318,-169.6995 1186.0604,-164.8392"/>
<ellipse fill="none" stroke="#be38e5" cx="854.2335" cy="-234.143" rx="4" ry="4"/>
<polygon fill="#be38e5" stroke="#be38e5" points="1186.4548,-164.8131 1196.7303,-168.6425 1191.4439,-164.4827 1196.433,-164.1524 1196.433,-164.1524 1196.433,-164.1524 1191.4439,-164.4827 1196.1356,-159.6622 1186.4548,-164.8131 1186.4548,-164.8131"/>
</g>
<!-- Quicksearch -->
<g id="node20" class="node">
<title>Quicksearch</title>
<ellipse fill="none" stroke="#000000" cx="2566.2117" cy="-252.5" rx="54.1058" ry="18"/>
<text text-anchor="middle" x="2566.2117" y="-248.3" font-family="Times,serif" font-size="14.00" fill="#000000">Quicksearch</text>
</g>
<!-- ReadingProf -->
<g id="node21" class="node">
<title>ReadingProf</title>
<ellipse fill="none" stroke="#000000" cx="957.2117" cy="-252.5" rx="54.6162" ry="18"/>
<text text-anchor="middle" x="957.2117" y="-248.3" font-family="Times,serif" font-size="14.00" fill="#000000">ReadingProf</text>
</g>
<!-- ReadingProf&#45;&gt;Internship -->
<g id="edge12" class="edge">
<title>ReadingProf&#45;&gt;Internship</title>
<path fill="none" stroke="#4a07cf" d="M988.9823,-232.0637C999.0039,-226.2579 1010.3104,-220.3412 1021.2117,-216 1076.8178,-193.8562 1144.0312,-179.0066 1189.6255,-170.5749"/>
<ellipse fill="none" stroke="#4a07cf" cx="985.3756" cy="-234.2052" rx="4" ry="4"/>
<polygon fill="#4a07cf" stroke="#4a07cf" points="1189.745,-170.5533 1200.3868,-173.1995 1194.665,-169.6624 1199.585,-168.7715 1199.585,-168.7715 1199.585,-168.7715 1194.665,-169.6624 1198.7832,-164.3435 1189.745,-170.5533 1189.745,-170.5533"/>
</g>
<!-- RegistrationState -->
<g id="node22" class="node">
<title>RegistrationState</title>
<ellipse fill="none" stroke="#000000" cx="1101.2117" cy="-252.5" rx="71.0358" ry="18"/>
<text text-anchor="middle" x="1101.2117" y="-248.3" font-family="Times,serif" font-size="14.00" fill="#000000">RegistrationState</text>
</g>
<!-- RegistrationState&#45;&gt;Internship -->
<g id="edge13" class="edge">
<title>RegistrationState&#45;&gt;Internship</title>
<path fill="none" stroke="#de9a41" d="M1134.377,-231.2131C1157.0326,-216.6717 1186.9179,-197.49 1209.4804,-183.0084"/>
<ellipse fill="none" stroke="#de9a41" cx="1130.7685" cy="-233.5291" rx="4" ry="4"/>
<polygon fill="#de9a41" stroke="#de9a41" points="1209.6286,-182.9133 1220.475,-181.2987 1213.8365,-180.2125 1218.0443,-177.5117 1218.0443,-177.5117 1218.0443,-177.5117 1213.8365,-180.2125 1215.6136,-173.7246 1209.6286,-182.9133 1209.6286,-182.9133"/>
</g>
<!-- ReportState -->
<g id="node23" class="node">
<title>ReportState</title>
<ellipse fill="none" stroke="#000000" cx="1242.2117" cy="-252.5" rx="51.7174" ry="18"/>
<text text-anchor="middle" x="1242.2117" y="-248.3" font-family="Times,serif" font-size="14.00" fill="#000000">ReportState</text>
</g>
<!-- ReportState&#45;&gt;Internship -->
<g id="edge14" class="edge">
<title>ReportState&#45;&gt;Internship</title>
<path fill="none" stroke="#d200d6" d="M1242.2117,-225.9687C1242.2117,-214.8402 1242.2117,-201.878 1242.2117,-190.5429"/>
<ellipse fill="none" stroke="#d200d6" cx="1242.2117" cy="-230.186" rx="4" ry="4"/>
<polygon fill="#d200d6" stroke="#d200d6" points="1242.2118,-190.2868 1246.7117,-180.2867 1242.2117,-185.2868 1242.2117,-180.2868 1242.2117,-180.2868 1242.2117,-180.2868 1242.2117,-185.2868 1237.7117,-180.2868 1242.2118,-190.2868 1242.2118,-190.2868"/>
</g>
<!-- Semester -->
<g id="node24" class="node">
<title>Semester</title>
<ellipse fill="none" stroke="#000000" cx="1354.2117" cy="-252.5" rx="42.5456" ry="18"/>
<text text-anchor="middle" x="1354.2117" y="-248.3" font-family="Times,serif" font-size="14.00" fill="#000000">Semester</text>
</g>
<!-- Semester&#45;&gt;Internship -->
<g id="edge15" class="edge">
<title>Semester&#45;&gt;Internship</title>
<path fill="none" stroke="#60baa6" d="M1327.9661,-231.2926C1310.7953,-217.418 1288.365,-199.2935 1270.7513,-185.061"/>
<ellipse fill="none" stroke="#60baa6" cx="1331.3349" cy="-234.0147" rx="4" ry="4"/>
<polygon fill="#60baa6" stroke="#60baa6" points="1270.3137,-184.7075 1265.3639,-174.9223 1266.4247,-181.565 1262.5356,-178.4225 1262.5356,-178.4225 1262.5356,-178.4225 1266.4247,-181.565 1259.7074,-181.9226 1270.3137,-184.7075 1270.3137,-184.7075"/>
</g>
<!-- Student -->
<g id="node25" class="node">
<title>Student</title>
<ellipse fill="none" stroke="#000000" cx="1840.2117" cy="-252.5" rx="37.2594" ry="18"/>
<text text-anchor="middle" x="1840.2117" y="-248.3" font-family="Times,serif" font-size="14.00" fill="#000000">Student</text>
</g>
<!-- Student&#45;&gt;Internship -->
<g id="edge16" class="edge">
<title>Student&#45;&gt;Internship</title>
<path fill="none" stroke="#b87660" d="M1818.0817,-230.7648C1810.9918,-225.0128 1802.7508,-219.4516 1794.2117,-216 1748.9592,-197.7083 1429.1154,-174.5171 1298.0352,-165.6619"/>
<ellipse fill="none" stroke="#b87660" cx="1821.2073" cy="-233.4431" rx="4" ry="4"/>
<polygon fill="#b87660" stroke="#b87660" points="1297.7878,-165.6454 1288.1122,-160.4846 1292.799,-165.3099 1287.8103,-164.9744 1287.8103,-164.9744 1287.8103,-164.9744 1292.799,-165.3099 1287.5084,-169.4643 1297.7878,-165.6454 1297.7878,-165.6454"/>
</g>
<!-- User -->
<g id="node26" class="node">
<title>User</title>
<ellipse fill="none" stroke="#000000" cx="1536.2117" cy="-162" rx="27" ry="18"/>
<text text-anchor="middle" x="1536.2117" y="-157.8" font-family="Times,serif" font-size="14.00" fill="#000000">User</text>
</g>
<!-- Student&#45;&gt;User -->
<g id="edge17" class="edge">
<title>Student&#45;&gt;User</title>
<path fill="none" stroke="#010f78" d="M1817.0376,-230.7052C1810.1267,-225.188 1802.2418,-219.7661 1794.2117,-216 1719.6423,-181.0273 1622.4011,-168.5386 1571.2249,-164.2055"/>
<ellipse fill="none" stroke="#010f78" cx="1820.5268" cy="-233.6279" rx="4" ry="4"/>
<ellipse fill="#010f78" stroke="#010f78" cx="1567.1053" cy="-163.8751" rx="4" ry="4"/>
</g>
<!-- User&#45;&gt;Favorite -->
<g id="edge19" class="edge">
<title>User&#45;&gt;Favorite</title>
<path fill="none" stroke="#bb9ce8" d="M1504.9173,-149.8206C1473.5789,-137.624 1425.2358,-118.8094 1391.1481,-105.5428"/>
<ellipse fill="none" stroke="#bb9ce8" cx="1509.0536" cy="-151.4304" rx="4" ry="4"/>
<polygon fill="#bb9ce8" stroke="#bb9ce8" points="1390.8193,-105.4149 1383.1323,-97.5944 1386.1597,-103.6014 1381.5002,-101.788 1381.5002,-101.788 1381.5002,-101.788 1386.1597,-103.6014 1379.868,-105.9816 1390.8193,-105.4149 1390.8193,-105.4149"/>
</g>
<!-- User&#45;&gt;Notification -->
<g id="edge20" class="edge">
<title>User&#45;&gt;Notification</title>
<path fill="none" stroke="#82ad9e" d="M1555.9943,-140.4189C1563.3357,-132.4101 1571.7226,-123.2608 1579.3187,-114.9741"/>
<ellipse fill="none" stroke="#82ad9e" cx="1553.2356" cy="-143.4284" rx="4" ry="4"/>
<polygon fill="#82ad9e" stroke="#82ad9e" points="1579.5421,-114.7305 1589.6165,-110.3997 1582.9207,-111.0447 1586.2993,-107.3589 1586.2993,-107.3589 1586.2993,-107.3589 1582.9207,-111.0447 1582.9821,-104.3181 1579.5421,-114.7305 1579.5421,-114.7305"/>
</g>
<!-- User&#45;&gt;UserComment -->
<g id="edge18" class="edge">
<title>User&#45;&gt;UserComment</title>
<path fill="none" stroke="#9f16e5" d="M1516.47,-140.4637C1509.1853,-132.5167 1500.8667,-123.4419 1493.3112,-115.1995"/>
<ellipse fill="none" stroke="#9f16e5" cx="1519.1877" cy="-143.4284" rx="4" ry="4"/>
<polygon fill="#9f16e5" stroke="#9f16e5" points="1493.117,-114.9876 1489.6769,-104.5753 1489.7384,-111.3018 1486.3597,-107.6161 1486.3597,-107.6161 1486.3597,-107.6161 1489.7384,-111.3018 1483.0425,-110.6568 1493.117,-114.9876 1493.117,-114.9876"/>
</g>
<!-- UserComment&#45;&gt;Answer -->
<g id="edge21" class="edge">
<title>UserComment&#45;&gt;Answer</title>
<path fill="none" stroke="#b66af4" d="M1470.2117,-63.8144C1470.2117,-57.5677 1470.2117,-50.894 1470.2117,-44.6276"/>
<ellipse fill="none" stroke="#b66af4" cx="1470.2117" cy="-67.8314" rx="4" ry="4"/>
<ellipse fill="#b66af4" stroke="#b66af4" cx="1470.2117" cy="-40.4133" rx="4" ry="4"/>
</g>
</g>
</svg>
